<?xml version="1.0" standalone="no"?>
<!DOCTYPE svg PUBLIC "-//W3C//DTD SVG 20010904//EN"
 "http://www.w3.org/TR/2001/REC-SVG-20010904/DTD/svg10.dtd">
<svg version="1.0" xmlns="http://www.w3.org/2000/svg"
 width="1115.000000pt" height="960.000000pt" viewBox="0 0 1115.000000 960.000000"
 preserveAspectRatio="xMidYMid meet">

<g transform="translate(0.000000,960.000000) scale(0.100000,-0.100000)"
fill="#000000" stroke="none">
<path d="M5299 8746 c-2 -3 -310 -99 -684 -214 -374 -116 -691 -215 -705 -220
-14 -5 -57 -45 -96 -88 -39 -44 -280 -312 -537 -597 -257 -284 -467 -521 -467
-525 0 -7 -21 -117 -75 -407 -14 -71 -50 -272 -80 -445 -31 -173 -58 -326 -60
-340 -5 -22 -1 -21 32 16 95 101 829 905 1082 1184 57 63 124 136 148 163 l44
47 388 0 388 0 328 -330 c181 -181 333 -330 337 -330 4 0 8 340 8 755 0 504
-3 755 -10 755 -6 0 -69 -29 -140 -65 -71 -36 -134 -65 -140 -65 -11 0 -14
169 -4 207 5 17 41 40 150 92 l144 70 0 170 0 171 -23 0 c-13 0 -26 -2 -28 -4z"/>
<path d="M5650 8247 l0 -503 145 -68 145 -69 0 -113 c0 -63 -2 -114 -5 -114
-3 0 -67 29 -142 65 -75 36 -138 65 -140 65 -1 0 -3 -192 -3 -427 l0 -428 333
333 332 332 290 0 290 0 128 243 c70 133 161 306 202 383 l75 142 -95 106
c-53 58 -103 110 -113 115 -9 5 -134 45 -277 89 -143 44 -386 119 -540 166
-154 48 -352 109 -441 136 -89 28 -166 50 -173 50 -8 0 -11 -131 -11 -503z"/>
<path d="M7342 7733 c-55 -103 -129 -243 -165 -310 l-65 -123 316 -347 c173
-192 453 -498 621 -681 168 -184 316 -346 328 -360 13 -15 23 -21 23 -14 0 7
-18 112 -41 235 -22 122 -51 285 -65 362 -13 77 -45 247 -70 379 l-45 239
-167 186 c-376 419 -555 616 -562 619 -4 2 -53 -82 -108 -185z"/>
<path d="M4244 6690 c16 -83 27 -152 25 -154 -2 -2 -71 -13 -153 -25 -82 -12
-151 -22 -152 -24 -2 -2 363 -263 392 -280 7 -4 49 2 93 13 44 12 89 22 99 23
10 0 103 -59 207 -133 105 -74 258 -182 340 -240 83 -58 206 -145 275 -192
l126 -86 434 305 c239 167 451 315 470 328 l35 24 97 -24 97 -25 200 142 c165
118 196 144 178 149 -12 3 -82 14 -154 24 -108 15 -133 21 -133 34 1 9 14 78
29 154 16 75 26 137 24 137 -3 0 -91 -61 -197 -136 l-191 -136 -7 -46 c-4 -26
-10 -72 -13 -103 l-6 -56 -92 -64 c-51 -36 -244 -172 -429 -302 -186 -130
-340 -237 -343 -237 -3 0 -26 15 -52 33 -27 19 -215 151 -419 295 -204 144
-376 267 -381 274 -6 7 -16 56 -22 108 -7 52 -13 95 -14 96 -9 10 -383 274
-387 274 -3 0 8 -68 24 -150z"/>
<path d="M70 6595 c0 -7 211 -676 273 -866 55 -169 75 -216 146 -340 45 -79
140 -227 211 -329 384 -551 450 -650 639 -960 97 -159 252 -436 350 -626 34
-67 76 -138 94 -159 32 -39 111 -95 134 -95 10 0 13 41 13 191 0 173 13 499
25 640 l4 56 -264 229 c-145 126 -264 231 -264 234 -1 5 95 119 205 245 l52
58 25 -19 c13 -10 81 -68 151 -129 70 -60 130 -110 134 -110 5 0 70 497 72
552 0 16 -19 33 -77 71 -182 116 -349 183 -643 258 l-175 44 -65 64 c-223 216
-736 710 -848 815 -72 69 -130 126 -128 128 2 2 32 -14 67 -35 64 -40 701
-417 1649 -977 278 -164 520 -307 538 -318 18 -11 36 -17 39 -13 5 5 62 530
62 581 1 22 -142 130 -338 256 l-113 72 -317 78 c-174 43 -590 146 -926 229
-705 175 -725 179 -725 175z"/>
<path d="M10665 6534 c-137 -34 -520 -128 -850 -209 -330 -81 -660 -162 -733
-180 -129 -32 -138 -36 -240 -106 -175 -119 -331 -230 -336 -237 -2 -4 0 -47
5 -97 35 -354 50 -500 54 -503 2 -3 120 64 262 148 142 85 344 204 448 266
105 61 397 234 650 384 808 479 879 522 915 542 42 24 79 60 -558 -552 -259
-250 -480 -456 -490 -458 -65 -12 -311 -78 -400 -108 -131 -43 -303 -126 -397
-191 -69 -47 -70 -49 -67 -88 4 -52 50 -449 58 -498 l6 -37 36 29 c21 16 89
75 152 130 63 56 118 101 121 101 7 0 259 -291 259 -299 0 -3 -118 -107 -261
-231 l-260 -225 5 -160 c12 -361 28 -730 31 -733 2 -2 21 6 42 17 55 28 103
84 158 187 178 332 261 480 353 634 123 206 421 658 584 885 160 224 203 290
295 450 71 124 88 164 146 345 160 497 267 844 265 850 -2 4 -115 -21 -253
-56z"/>
<path d="M3271 6188 c-32 -40 -144 -177 -247 -305 l-189 -231 -23 -224 c-13
-122 -26 -259 -29 -302 l-6 -79 221 6 221 7 255 -294 c141 -162 259 -297 264
-300 4 -2 102 -9 217 -15 116 -6 257 -14 314 -17 l104 -6 -179 -75 c-98 -41
-279 -117 -401 -169 -122 -52 -226 -94 -230 -94 -5 0 -67 64 -138 142 -328
360 -479 518 -486 511 -8 -8 -199 -476 -199 -487 0 -9 728 -586 778 -617 14
-9 121 48 617 334 l600 345 62 98 c34 55 62 104 62 110 1 6 -38 19 -86 28
-157 31 -911 198 -920 205 -6 3 -108 137 -228 296 -208 276 -367 486 -387 512
-12 16 59 -16 631 -276 591 -269 675 -299 964 -342 216 -31 188 -42 314 121
l108 141 5 174 c3 96 3 175 1 175 -3 0 -60 -58 -129 -130 -68 -71 -128 -130
-134 -130 -6 0 -40 27 -75 61 -199 186 -545 423 -913 626 -109 60 -348 162
-508 217 -90 31 -166 56 -168 56 -2 0 -30 -33 -63 -72z"/>
<path d="M7506 6209 c-244 -82 -464 -184 -695 -321 -330 -197 -602 -392 -764
-547 l-47 -45 -136 134 -136 135 4 -175 4 -175 108 -142 c125 -165 103 -155
289 -128 280 42 424 87 737 230 129 59 357 162 505 230 288 130 364 165 380
174 6 3 5 -1 -1 -10 -6 -8 -69 -90 -140 -184 -71 -93 -207 -273 -302 -400
l-173 -230 -277 -62 c-152 -35 -378 -83 -502 -109 -124 -25 -227 -48 -229 -50
-2 -2 23 -49 55 -105 67 -115 18 -79 444 -324 113 -65 275 -158 360 -208 85
-49 226 -129 313 -179 l157 -89 193 147 c251 193 568 446 586 467 12 15 12 23
-1 55 -117 290 -182 448 -186 452 -5 5 -10 -1 -371 -394 -135 -146 -249 -266
-255 -266 -6 0 -31 10 -56 21 -59 27 -640 272 -705 297 l-50 20 90 6 c50 3
162 8 250 11 88 3 190 8 228 11 l68 6 196 227 c109 124 226 258 261 298 l64
72 225 -6 224 -6 -6 39 c-6 42 -55 532 -55 550 0 11 -486 617 -499 621 -3 2
-73 -20 -155 -48z"/>
<path d="M2460 5008 c0 -2 -7 -51 -15 -109 -22 -157 -52 -464 -75 -744 -32
-408 -43 -759 -37 -1170 5 -374 11 -479 43 -785 l16 -155 -56 -199 c-30 -110
-54 -202 -51 -204 2 -2 39 7 82 21 142 46 518 168 532 173 10 3 -10 30 -64 84
l-79 80 34 35 c19 19 38 35 42 35 4 0 8 -15 8 -34 l0 -34 129 77 c71 43 178
99 238 126 59 26 112 51 117 55 4 5 -15 46 -44 93 -28 47 -50 92 -48 100 1 9
190 200 420 426 l416 411 264 -173 c144 -95 362 -241 483 -324 121 -82 238
-162 259 -177 l39 -26 383 0 383 0 118 81 c223 153 598 404 763 511 l165 106
415 -411 c228 -227 416 -419 418 -427 1 -8 -19 -53 -46 -100 l-49 -85 146 -71
c80 -38 190 -98 243 -131 53 -34 99 -58 102 -55 3 3 6 19 6 36 l0 31 37 -38
38 -37 -75 -75 c-47 -47 -71 -78 -65 -84 13 -12 605 -204 611 -198 3 3 -18 88
-47 188 -29 101 -53 202 -53 224 0 22 8 121 17 220 50 530 50 1203 1 1850 -25
338 -82 867 -95 879 -4 4 -87 -64 -193 -160 l-59 -53 56 -218 56 -218 -29
-700 c-16 -385 -33 -810 -39 -945 -6 -135 -14 -320 -17 -413 l-7 -167 -61 57
c-34 32 -64 62 -67 68 -6 9 2 228 41 1233 7 161 10 295 8 298 -3 2 -46 -137
-97 -309 -106 -355 -267 -847 -285 -873 -11 -15 -30 0 -166 133 l-154 150 57
183 c31 101 55 186 52 189 -3 2 -69 -39 -147 -92 l-141 -96 -299 292 c-164
161 -302 293 -306 295 -5 1 -27 -26 -50 -60 -134 -204 -319 -357 -511 -423
-42 -15 -85 -30 -97 -35 -11 -4 -73 -78 -138 -164 l-118 -156 -296 -1 c-164 0
-307 -2 -318 -4 -18 -4 -43 23 -138 149 -131 172 -139 180 -181 190 -67 16
-183 70 -264 122 -112 74 -207 166 -293 286 -57 80 -73 96 -86 89 -10 -6 -145
-138 -301 -294 l-284 -285 -141 94 c-77 51 -142 92 -144 90 -5 -6 24 -111 67
-240 22 -66 39 -120 38 -121 -1 0 -72 -69 -158 -153 l-156 -153 -23 58 c-49
125 -136 395 -246 763 -64 212 -118 387 -121 390 -2 3 -2 -60 2 -140 3 -80 14
-383 25 -675 11 -291 22 -573 25 -625 l5 -95 -62 -62 c-34 -35 -65 -63 -69
-63 -3 0 -9 93 -13 208 -3 114 -11 308 -16 432 -34 781 -59 1419 -61 1510 -1
60 9 118 50 283 28 114 51 211 51 216 0 5 -48 50 -107 102 -142 122 -143 123
-143 117z"/>
<path d="M5394 4791 c-110 -130 -104 -118 -232 -451 l-78 -205 -152 -227 c-84
-125 -152 -233 -152 -239 0 -21 129 -112 256 -181 54 -29 91 -60 149 -123 l77
-85 233 0 234 0 73 80 c59 65 93 92 181 142 120 69 223 147 221 169 -1 8 -70
120 -155 250 l-154 235 -95 253 -95 253 -93 112 c-52 61 -99 117 -106 123 -9
10 -33 -13 -112 -106z"/>
<path d="M4016 2559 c-24 -481 -45 -914 -43 -916 2 -1 104 35 227 81 259 95
220 58 321 304 l64 152 135 -133 135 -134 120 18 c66 10 213 23 328 30 226 14
460 5 711 -27 l129 -17 130 131 c71 73 130 132 132 132 1 0 35 -81 76 -181 47
-116 80 -186 93 -194 28 -18 486 -168 492 -162 7 6 -44 959 -54 1011 l-7 39
-170 -209 c-93 -114 -174 -213 -178 -218 -5 -7 -48 30 -112 97 -57 59 -108
107 -113 107 -5 0 -55 -30 -113 -66 -57 -37 -157 -101 -222 -142 l-118 -75
-483 0 -483 0 -221 141 c-122 78 -228 142 -236 142 -8 0 -54 -43 -103 -96
l-89 -96 -154 187 c-85 103 -162 197 -171 208 -15 18 -16 10 -23 -114z"/>
<path d="M3465 1887 c-121 -62 -225 -115 -231 -119 -8 -5 34 -189 135 -590
l146 -582 95 -23 c76 -18 483 -98 651 -127 l36 -6 169 192 c92 106 264 302
382 436 l214 242 433 0 433 0 119 -133 c65 -72 237 -268 382 -435 145 -166
264 -302 265 -302 17 0 530 97 611 116 61 13 123 27 138 31 16 3 33 15 38 27
11 27 291 1148 287 1151 -12 11 -461 235 -464 232 -2 -2 28 -109 67 -237 39
-128 67 -236 62 -240 -32 -30 -764 -570 -772 -570 -5 0 -113 91 -238 203 -126
111 -276 243 -334 293 l-106 91 -129 14 c-165 18 -539 18 -713 0 -126 -13
-135 -16 -170 -45 -46 -40 -350 -308 -508 -448 -67 -60 -126 -108 -132 -108
-6 0 -145 100 -308 223 -164 123 -337 251 -385 286 -49 35 -88 65 -88 67 0 2
32 106 70 231 39 125 69 231 68 235 -2 4 -102 -44 -223 -105z"/>
<path d="M4858 617 c-103 -116 -185 -214 -182 -216 7 -8 289 -29 295 -22 9 8
87 451 80 450 -3 0 -90 -96 -193 -212z"/>
<path d="M5940 820 c0 -25 72 -425 79 -435 6 -11 284 5 295 16 5 4 -162 197
-370 428 -2 2 -4 -1 -4 -9z"/>
</g>
</svg>
