<?xml version="1.0" standalone="no"?>
<!DOCTYPE svg PUBLIC "-//W3C//DTD SVG 20010904//EN"
 "http://www.w3.org/TR/2001/REC-SVG-20010904/DTD/svg10.dtd">
<svg version="1.0" xmlns="http://www.w3.org/2000/svg"
 width="1115.000000pt" height="960.000000pt" viewBox="0 0 1115.000000 960.000000"
 preserveAspectRatio="xMidYMid meet">

<g transform="translate(0.000000,960.000000) scale(0.100000,-0.100000)"
fill="#000000" stroke="none">
<path d="M5468 9132 c-64 -67 -184 -277 -372 -646 l-116 -229 0 -107 0 -107
38 -25 c115 -77 274 -126 434 -135 182 -11 377 40 520 135 l38 25 0 107 0 107
-115 227 c-193 380 -319 599 -378 654 l-23 22 -26 -28z"/>
<path d="M4500 7978 c-237 -67 -371 -115 -628 -222 -96 -40 -305 -146 -417
-211 -55 -32 -116 -67 -135 -77 -19 -11 -42 -26 -51 -34 -8 -8 -19 -14 -23
-14 -23 0 -423 -291 -432 -314 -2 -6 -13 -60 -25 -121 -57 -298 -70 -369 -89
-475 -12 -63 -25 -135 -30 -160 -44 -240 -103 -601 -140 -850 -11 -74 -26
-180 -35 -235 -9 -55 -22 -149 -30 -210 -13 -107 -13 -111 9 -155 12 -25 110
-218 219 -430 l197 -386 -15 -89 c-8 -50 -35 -223 -60 -385 -66 -427 -81 -519
-87 -525 -3 -3 -8 194 -12 437 l-7 441 -26 51 c-14 28 -42 80 -63 116 -21 36
-77 135 -126 220 l-89 155 -12 -110 c-22 -197 -42 -533 -55 -891 -17 -519 4
-1048 61 -1505 19 -150 49 -341 54 -345 13 -10 449 -155 453 -151 1 1 -22 51
-51 110 -32 65 -62 145 -76 200 l-22 93 71 224 c39 124 77 242 85 264 l13 38
73 -263 c41 -145 78 -278 83 -296 7 -27 26 -41 151 -111 327 -182 389 -214
411 -209 11 3 87 33 169 66 288 118 538 195 877 270 273 61 830 98 1085 72
563 -56 909 -139 1385 -333 80 -33 159 -64 176 -70 28 -9 44 -3 210 87 345
188 352 192 363 228 6 17 40 142 76 277 36 135 68 252 72 260 6 16 52 -114
129 -360 l45 -145 -21 -91 c-13 -57 -41 -132 -74 -200 -30 -60 -53 -110 -53
-110 4 -3 198 58 323 102 128 44 132 47 137 77 11 66 57 385 66 462 6 44 20
220 32 390 32 476 19 1188 -31 1725 -6 58 -13 136 -17 173 -3 37 -9 64 -14 60
-8 -9 -112 -188 -224 -388 l-73 -130 -6 -375 c-4 -206 -9 -406 -13 -445 l-6
-70 -9 45 c-9 47 -119 749 -138 881 l-11 76 197 384 c108 211 207 404 219 429
20 39 22 53 15 105 -5 33 -13 101 -20 150 -6 50 -19 146 -30 215 -10 69 -26
172 -35 230 -15 100 -62 393 -69 435 -2 11 -16 88 -30 170 -14 83 -37 211 -51
285 -14 74 -35 187 -46 250 -11 63 -26 140 -34 170 -7 30 -19 89 -25 130 -12
73 -14 76 -59 110 -240 181 -436 307 -746 480 -118 65 -468 214 -650 276 -113
38 -314 92 -320 86 -3 -3 -5 -35 -5 -72 l0 -67 -67 -60 c-128 -113 -241 -185
-348 -223 -33 -11 -67 -25 -76 -30 -9 -5 -52 -16 -95 -25 -44 -9 -88 -19 -99
-22 -11 -4 -99 -8 -197 -10 -150 -4 -192 -1 -285 17 -246 48 -415 131 -594
293 l-69 62 0 67 c0 37 -3 69 -7 71 -5 2 -37 -5 -73 -15z m-275 -1253 c-63
-180 -113 -330 -110 -335 3 -5 61 -38 130 -74 322 -171 686 -422 957 -660 l78
-69 -42 -46 c-84 -92 -233 -241 -240 -241 -4 0 -38 28 -75 61 -200 182 -628
476 -870 598 -35 17 -63 36 -63 41 0 6 15 59 34 118 47 148 76 248 76 261 0
14 -89 54 -105 47 -7 -2 -51 -73 -99 -158 -47 -84 -90 -158 -94 -165 -6 -9
-36 -1 -117 33 -261 108 -505 173 -647 174 l-48 0 0 206 0 206 88 -7 c252 -20
472 -79 806 -216 26 -12 52 -17 56 -12 12 13 177 253 289 421 56 85 105 152
107 149 3 -3 -47 -152 -111 -332z m2139 -73 c112 -113 127 -132 118 -149 -20
-36 -258 -257 -342 -318 -153 -110 -330 -186 -482 -208 -143 -20 -308 -8 -428
33 -139 47 -242 98 -360 178 -101 68 -370 294 -370 311 0 13 253 291 265 291
6 0 47 -32 90 -71 305 -274 508 -368 734 -340 177 22 333 122 550 353 50 53
67 65 80 58 9 -5 74 -67 145 -138z m1636 -136 l0 -203 -91 -6 c-157 -12 -429
-91 -648 -189 -76 -34 -344 -166 -376 -185 -16 -10 -75 -44 -130 -77 -168
-100 -356 -226 -491 -331 -118 -92 -237 -193 -247 -210 -4 -8 -12 -15 -17 -15
-14 0 -290 283 -284 291 11 19 220 195 320 269 157 118 604 410 628 410 3 0
29 15 58 34 101 64 399 204 547 258 31 11 70 26 86 33 139 60 421 118 603 124
l42 1 0 -204z m-4739 -1383 l126 -128 -37 -109 c-21 -59 -52 -164 -70 -231
-28 -107 -30 -126 -18 -143 12 -18 19 -12 92 92 44 61 105 146 135 188 l56 78
205 -5 c485 -13 611 -18 603 -25 -4 -4 -143 -76 -308 -160 -165 -84 -302 -155
-305 -158 -7 -6 116 5 397 38 l243 28 295 222 c189 142 299 219 307 214 16
-10 291 -224 412 -322 49 -40 94 -72 100 -72 6 0 43 25 81 56 106 85 418 329
432 337 7 5 106 -63 250 -171 131 -98 264 -197 296 -221 l58 -42 242 -29 c133
-16 278 -31 322 -35 l80 -6 -305 157 c-168 86 -309 160 -313 164 -5 4 94 11
220 14 125 3 316 9 423 12 l195 5 193 197 192 197 0 330 0 330 139 -139 139
-138 6 -88 c4 -48 20 -206 36 -351 l28 -264 -56 -55 c-31 -30 -136 -127 -232
-215 -96 -88 -209 -193 -251 -232 l-75 -73 -467 0 c-257 0 -467 -3 -467 -7 0
-5 104 -132 231 -283 l231 -275 148 -295 148 -295 -90 -200 c-49 -110 -90
-201 -92 -202 -2 -2 -33 48 -71 109 -37 62 -120 198 -184 301 l-115 188 -136
83 c-74 46 -195 118 -269 161 l-133 77 -207 -26 c-113 -14 -298 -38 -411 -52
-235 -31 -206 -32 -728 37 -167 23 -313 38 -325 35 -12 -3 -137 -74 -277 -159
l-255 -153 -60 -94 c-32 -52 -115 -187 -183 -300 -67 -113 -126 -204 -129
-203 -3 1 -45 90 -94 198 l-88 195 143 293 143 292 119 141 c262 310 349 415
352 424 2 6 -164 10 -463 10 l-466 0 -48 45 -47 44 -99 -135 c-54 -74 -99
-133 -101 -132 -3 3 67 303 80 345 5 17 -20 46 -146 164 -84 79 -176 167 -205
194 l-52 50 9 85 c22 197 60 582 60 603 0 15 41 61 137 154 l138 132 5 -335 5
-334 126 -127z m604 495 c99 -52 305 -159 458 -238 152 -79 276 -144 275 -146
-12 -10 -360 -144 -374 -143 -11 0 -120 21 -244 47 l-224 48 -123 158 -123
158 0 72 c0 40 3 107 6 149 l7 76 81 -44 c45 -23 162 -85 261 -137z m3614 -50
l1 -66 -63 -79 c-35 -43 -90 -114 -124 -158 l-60 -80 -234 -48 c-129 -26 -238
-48 -243 -47 -11 0 -366 141 -366 145 0 2 159 85 353 186 193 101 435 226 537
280 l185 97 7 -82 c3 -44 6 -111 7 -148z m-2078 -386 c47 -34 89 -62 93 -62 3
0 47 29 97 65 50 36 94 67 99 68 10 2 120 -91 120 -102 0 -12 -309 -253 -319
-249 -19 6 -321 243 -318 249 6 18 123 106 132 100 6 -4 49 -35 96 -69z
m-2201 -1512 c0 -4 84 -212 186 -461 133 -326 198 -471 228 -514 24 -33 156
-217 295 -408 139 -192 251 -350 250 -351 -2 -2 -56 -23 -119 -46 -63 -23
-178 -66 -255 -97 l-141 -54 -74 43 c-41 24 -132 75 -202 113 -107 58 -129 74
-138 100 -5 16 -63 222 -129 457 l-121 428 101 405 c56 222 105 402 110 399 5
-3 9 -9 9 -14z m4750 -990 c-32 -113 -90 -320 -130 -460 l-71 -255 -205 -112
-204 -112 -147 58 c-144 57 -294 112 -341 126 -13 4 -21 12 -19 20 5 12 452
630 535 738 46 61 62 96 289 657 74 184 138 339 141 344 3 6 52 -172 108 -395
l102 -404 -58 -205z m-3256 752 l25 -82 -25 -87 c-41 -141 -125 -407 -130
-413 -3 -3 -9 2 -14 10 -4 8 -35 49 -67 90 -120 153 -236 311 -231 316 12 11
412 253 415 250 2 -1 14 -39 27 -84z m396 59 c85 -10 181 -22 213 -26 l57 -6
0 -156 0 -156 -92 6 c-51 4 -147 10 -214 13 l-120 7 -38 65 c-37 66 -55 144
-56 246 l0 39 48 -6 c26 -4 117 -15 202 -26z m1056 -33 c-15 -140 -19 -157
-55 -219 l-37 -64 -165 -12 c-90 -6 -185 -11 -211 -12 l-48 -1 0 155 c0 85 4
155 8 155 20 0 418 51 427 54 6 3 27 5 49 5 l39 1 -7 -62z m407 -76 c103 -63
187 -118 187 -123 0 -4 -10 -20 -23 -36 -13 -15 -74 -95 -137 -178 -62 -82
-123 -161 -136 -174 l-22 -24 -32 104 c-17 57 -52 169 -76 248 -24 79 -42 151
-40 160 47 165 46 162 69 150 12 -7 106 -64 210 -127z m-1976 -1097 c88 -115
162 -215 166 -221 5 -8 -23 -17 -86 -28 -50 -9 -139 -28 -196 -42 -78 -19
-106 -22 -112 -13 -4 7 -12 44 -18 84 -9 63 -8 85 13 186 43 202 58 261 65
252 4 -4 80 -102 168 -218z m2042 89 c51 -223 52 -235 35 -320 -8 -43 -16 -79
-18 -81 -2 -2 -50 7 -107 20 -57 14 -144 32 -194 42 -49 10 -92 20 -94 21 -2
2 29 45 69 96 39 51 117 153 173 225 55 73 102 131 104 130 1 -2 16 -62 32
-133z m-1274 -167 c14 -46 25 -86 25 -89 0 -3 -51 -8 -112 -12 -109 -7 -239
-20 -305 -31 -28 -5 -32 -3 -38 25 -8 36 14 140 31 147 13 5 302 40 346 42 26
1 29 -4 53 -82z m524 63 c96 -11 178 -23 182 -27 12 -13 26 -108 21 -141 -4
-27 -7 -31 -31 -27 -54 9 -210 25 -313 31 -68 4 -108 11 -108 18 0 27 53 166
63 166 7 0 91 -9 186 -20z"/>
<path d="M4806 4598 c-80 -90 -146 -168 -146 -175 0 -6 24 -47 53 -90 50 -75
56 -80 152 -130 55 -29 104 -52 109 -53 5 0 5 48 1 111 l-7 111 62 -33 c90
-48 149 -110 220 -231 42 -71 69 -108 84 -112 96 -23 332 -12 349 16 4 7 31
53 60 103 58 101 124 172 201 215 78 45 78 46 70 -76 l-7 -106 24 7 c49 16
175 84 195 106 12 13 41 55 64 93 38 60 42 71 31 89 -21 34 -284 317 -295 317
-9 0 -132 -92 -401 -299 -75 -58 -134 -97 -140 -92 -310 236 -517 391 -524
391 -5 0 -75 -73 -155 -162z"/>
<path d="M120 6466 c0 -31 155 -477 254 -733 191 -493 174 -459 351 -708 232
-328 401 -578 498 -735 94 -152 239 -395 284 -475 52 -91 64 -114 193 -358 74
-140 113 -186 183 -221 17 -8 32 -14 33 -13 1 1 7 149 14 330 6 180 15 379 18
442 l7 116 -129 112 c-71 62 -168 146 -215 187 -47 41 -107 92 -133 114 -45
36 -59 60 -40 68 4 2 60 65 125 141 65 75 122 137 126 137 4 0 61 -46 126
-102 65 -57 133 -116 151 -131 l33 -28 5 23 c3 13 10 68 15 123 6 55 18 158
27 228 8 70 14 134 11 141 -5 13 -135 94 -695 432 l-363 219 -252 235 c-139
129 -277 259 -307 288 -54 52 -33 42 847 -397 496 -248 904 -447 907 -443 8
13 67 433 64 454 -2 16 -40 36 -183 95 -195 81 -600 237 -705 271 -113 37
-628 126 -1024 177 -233 29 -226 29 -226 11z"/>
<path d="M10750 6469 c-604 -81 -1015 -153 -1164 -203 -148 -50 -557 -210
-852 -332 -7 -3 -5 -43 7 -132 25 -179 50 -346 54 -350 2 -2 407 199 902 446
494 248 899 450 899 449 4 -5 -605 -571 -631 -586 -16 -10 -201 -122 -411
-249 -442 -267 -594 -360 -613 -378 -11 -10 -11 -32 4 -140 9 -71 23 -185 30
-254 8 -69 14 -126 15 -128 0 -2 176 144 190 158 30 30 114 100 121 100 10 0
259 -287 259 -299 0 -4 -44 -45 -97 -90 -53 -46 -171 -148 -262 -227 l-166
-144 12 -217 c6 -120 14 -320 18 -445 5 -126 11 -228 15 -228 16 0 102 65 128
96 15 18 60 97 100 174 73 141 80 154 158 292 24 43 44 80 44 83 0 4 14 26 30
50 17 24 30 46 30 48 0 3 18 34 39 69 21 35 48 80 58 99 47 84 333 517 493
744 254 361 262 374 322 519 123 294 388 1029 388 1076 0 11 -28 11 -120 -1z"/>
<path d="M5255 1559 c-118 -7 -158 -12 -360 -44 -341 -54 -731 -177 -1069
-338 l-128 -61 -52 28 c-150 81 -583 306 -590 306 -8 0 25 -64 189 -365 48
-88 127 -234 176 -326 l89 -165 262 -52 c145 -29 273 -52 285 -52 14 0 66 38
135 98 452 391 707 610 728 625 22 15 73 17 573 17 392 0 554 -3 570 -11 11
-7 73 -58 136 -114 64 -56 251 -218 416 -359 l299 -258 65 6 c57 6 294 53 449
89 l53 13 229 424 c125 234 227 426 225 428 -4 5 -171 -80 -422 -214 l-217
-115 -115 52 c-455 204 -721 288 -1116 350 -296 46 -521 57 -810 38z"/>
<path d="M4973 888 c-98 -84 -471 -418 -491 -440 l-23 -25 93 -7 c51 -4 120
-11 153 -16 280 -41 1257 -42 1595 0 41 5 110 12 153 16 42 3 77 10 77 14 0 5
-11 17 -24 27 -13 10 -104 90 -202 178 -99 88 -212 188 -252 223 l-73 62 -484
0 -484 0 -38 -32z"/>
</g>
</svg>
