<?xml version="1.0" standalone="no"?>
<!DOCTYPE svg PUBLIC "-//W3C//DTD SVG 20010904//EN"
 "http://www.w3.org/TR/2001/REC-SVG-20010904/DTD/svg10.dtd">
<svg version="1.0" xmlns="http://www.w3.org/2000/svg"
 width="1408.000000pt" height="768.000000pt" viewBox="0 0 1408.000000 768.000000"
 preserveAspectRatio="xMidYMid meet">

<g transform="translate(0.000000,768.000000) scale(0.100000,-0.100000)"
fill="#000000" stroke="none">
<path d="M1995 4318 c142 -145 266 -269 276 -276 14 -9 268 -12 1216 -10
l1198 3 -80 46 c-446 258 -937 410 -1562 482 -40 5 -56 -4 -34 -18 6 -3 78
-87 162 -187 84 -99 146 -177 138 -172 -8 4 -79 63 -159 129 -80 67 -185 154
-234 193 l-90 72 -249 0 c-237 0 -249 -1 -235 -17 17 -20 250 -300 294 -353
35 -43 42 -48 -235 182 l-226 188 -219 0 -218 0 257 -262z"/>
<path d="M11300 4573 c0 -3 95 -134 210 -290 l210 -284 -42 5 c-75 10 -455 46
-487 46 -24 0 -31 -4 -31 -19 0 -11 -3 -26 -6 -35 -6 -15 -426 -16 -4669 -16
-4655 0 -4664 0 -4670 20 -6 19 -15 20 -298 20 -274 0 -293 -1 -334 -21 -24
-11 -52 -32 -63 -46 -41 -52 -37 -53 179 -53 219 0 231 -3 231 -59 0 -57 -17
-61 -233 -61 -114 0 -197 -4 -197 -9 0 -20 56 -75 95 -92 36 -17 70 -19 327
-19 278 0 287 1 293 20 6 20 15 20 4676 20 l4669 0 0 -35 c0 -19 3 -35 8 -35
4 0 126 11 272 25 145 13 266 22 268 21 2 -2 -90 -128 -203 -281 -113 -153
-204 -279 -202 -282 3 -2 47 15 98 38 52 22 180 78 284 124 105 45 435 189
735 319 300 131 548 241 552 245 8 7 -145 75 -1117 498 -258 113 -489 214
-512 224 -24 10 -43 16 -43 12z m875 -483 c281 -122 515 -227 520 -232 7 -8 4
-9 -8 -4 -10 3 -336 6 -723 6 l-704 0 0 60 0 61 33 -6 c58 -9 579 -56 594 -53
10 2 -32 67 -129 198 -178 242 -168 224 -126 207 18 -8 263 -115 543 -237z
m-1155 -200 l0 -30 -4530 0 -4530 0 0 30 0 30 4530 0 4530 0 0 -30z"/>
<path d="M2005 3378 l-267 -273 212 -3 c170 -2 217 0 234 12 12 8 109 87 216
175 107 89 213 176 235 193 l40 32 -26 -30 c-15 -16 -93 -108 -174 -204 l-148
-175 184 -3 c101 -2 216 0 255 3 l72 7 222 181 c123 100 234 191 249 202 14
11 -50 -68 -142 -177 -92 -108 -167 -198 -167 -200 0 -3 64 4 142 14 399 50
760 144 1078 280 112 48 400 193 443 223 19 13 -106 15 -1185 15 l-1206 0
-267 -272z"/>
</g>
</svg>
