<?xml version="1.0" encoding="UTF-8"?>
<svg id="Projectiles" xmlns="http://www.w3.org/2000/svg" version="1.1" viewBox="0 0 88 88">
  <defs>
    <style>
      .cls-1 {
        fill: #ecda97;
        stroke-width: 0px;
      }
    </style>
  </defs>
  <path class="cls-1" d="M82.6,48.9c-1.2-2.7-2.6-5.7-4.3-8.8-1.5-2.7-4.3-7-5.9-9.1L5.8,82,55.4,14.5c-2.2-1.5-4.6-3.1-7.3-4.6-3.1-1.8-6-3.2-8.8-4.4,14.4,0,28.9.1,43.3.2,0,14.4,0,28.9-.1,43.3h0Z"/>
  <path class="cls-1" d="M72.7,77.9c-.6-9.9-3.3-19.7-8.3-28.5l-15.8,12c3.2,6.7,4.8,13.9,4.7,21.2l19.5.2c0-1.6,0-3.3-.1-4.9h0ZM5.5,15.2v19.5c12.4-.1,24.7,4.5,34,13.8l13.8-13.8c-11.9-11.9-27.2-18.4-42.8-19.4-1.7-.1-3.4-.2-5.1-.1h0Z"/>
</svg>