<?xml version="1.0" encoding="UTF-8"?>
<svg id="Area_Size" data-name="Area Size" xmlns="http://www.w3.org/2000/svg" version="1.1" viewBox="0 0 88 88">
  <defs>
    <style>
      .cls-1 {
        fill: #528dff;
        stroke-width: 0px;
      }
    </style>
  </defs>
  <g>
    <path class="cls-1" d="M66.8,17.9l-7.8,2.5c-4.3-2.8-9.5-4.4-15-4.4s-10.7,1.6-15,4.4l-7.8-2.5c.7-.6,1.5-1.2,2.3-1.8,3.5-2.6,7.4-4.5,11.7-5.6l8.9-8.4,8.9,8.4c4.3,1.1,8.2,3,11.7,5.6.8.6,1.5,1.2,2.3,1.8h-.2Z"/>
    <path class="cls-1" d="M70.1,66.8l-2.6-7.8c2.8-4.3,4.4-9.5,4.4-15s-1.6-10.7-4.4-15l2.6-7.8c.6.7,1.2,1.5,1.8,2.3,2.6,3.5,4.5,7.4,5.6,11.7l8.4,8.9-8.4,8.9c-1.1,4.3-3.1,8.2-5.6,11.7-.6.8-1.2,1.5-1.8,2.3h0v-.2Z"/>
    <path class="cls-1" d="M21.2,70.1l7.8-2.6c4.3,2.8,9.5,4.4,15,4.4s10.7-1.6,15-4.4l7.8,2.6c-.7.6-1.5,1.2-2.3,1.8-3.5,2.6-7.4,4.5-11.7,5.6l-8.9,8.4-8.9-8.4c-4.3-1.1-8.2-3.1-11.7-5.6-.8-.6-1.5-1.2-2.3-1.8h.2Z"/>
    <path class="cls-1" d="M17.9,21.2l2.5,7.8c-2.8,4.3-4.4,9.5-4.4,15s1.6,10.7,4.4,15l-2.5,7.8c-.6-.7-1.2-1.5-1.8-2.3-2.6-3.5-4.5-7.4-5.6-11.7l-8.4-8.9,8.4-8.9c1.1-4.3,3-8.2,5.6-11.7.6-.8,1.2-1.5,1.8-2.3h0v.2Z"/>
  </g>
  <g>
    <path class="cls-1" d="M62,62c-.6-.2-19.4-7.1-24.2-11.9-4.8-4.8-11.6-23.6-11.9-24.2.6.2,19.4,7.1,24.2,11.9s11.7,23.6,11.9,24.2Z"/>
    <path class="cls-1" d="M26,62c.6-.2,19.4-7.1,24.2-11.9,4.8-4.8,11.7-23.6,11.9-24.2-.6.2-19.4,7.1-24.2,11.9s-11.6,23.6-11.9,24.2Z"/>
  </g>
</svg>