<?xml version="1.0" encoding="UTF-8"?>
<!DOCTYPE svg PUBLIC "-//W3C//DTD SVG 1.1//EN" "http://www.w3.org/Graphics/SVG/1.1/DTD/svg11.dtd">
<!-- Creator: CorelDRAW 2021 (64-Bit) -->
<svg xmlns="http://www.w3.org/2000/svg" xml:space="preserve" width="181.886mm" height="252.179mm" version="1.1" style="shape-rendering:geometricPrecision; text-rendering:geometricPrecision; image-rendering:optimizeQuality; fill-rule:evenodd; clip-rule:evenodd"
viewBox="0 0 18191.66 25222.11"
 xmlns:xlink="http://www.w3.org/1999/xlink"
 xmlns:xodm="http://www.corel.com/coreldraw/odm/2003">
 <defs>
  <style type="text/css">
   <![CDATA[
    .str0 {stroke:black;stroke-width:20;stroke-linejoin:bevel;stroke-miterlimit:22.9256}
    .fil0 {fill:black}
   ]]>
  </style>
 </defs>
 <g id="Layer_x0020_1">
  <metadata id="CorelCorpID_0Corel-Layer"/>
  <path class="fil0 str0" d="M14223.06 6.93c675.67,702.93 1154.56,1647.08 1417.01,2581.67 86.21,306.93 165.07,614.31 213.8,929.71 157.96,1022.51 70.45,2202.29 -445.31,3114.06 -556.66,984.17 -1370.17,1421.42 -2420.35,1713.41 19.03,328.52 1.64,665.01 -5.29,994.09 100.83,139.37 177.16,285.99 160.76,464.07 -13.42,145.79 -83.64,255.5 -195.03,346.67 -20.05,277.31 -34.99,560.08 -31.85,838.1 46.3,63.45 63.9,124.07 83.88,198.58 720.64,448.15 1664.77,372.95 2473.55,511.77 741.51,127.27 1469.11,461.61 2006.75,996.99 202.81,201.99 374.37,433.62 539.2,666.71 -593.19,-258.99 -1154.8,-530.76 -1821.49,-499.46 -185.53,8.71 -370.34,40.73 -553.86,67.79 364.98,150.79 705.47,323.26 1025.31,556.93 834.69,609.86 1319.6,1418.45 1474.14,2437.7 50.81,335.16 45.75,674.78 9.43,1011.1 -97.35,901.01 -380.97,1468.88 -905.69,2179.12 140.97,-823.75 178.22,-1689.22 -183.31,-2466.47 -303.82,-653.29 -814.26,-1034.47 -1481.66,-1276.82 171.56,211.98 306.45,446.95 416.06,696.28 418.35,951.75 455.4,2106.82 70.28,3076.34 -318.85,802.63 -909.54,1433.61 -1667.19,1842.67 -247.61,133.7 -510.46,239.18 -768.95,349.82 368.43,-398.68 601.8,-822.67 788.9,-1328.76 161.89,-474.11 215.4,-1019.5 140.74,-1515.85 -75.14,-499.47 -286.47,-816.93 -686.4,-1113.63 118.26,268.55 203.67,533.36 212.63,829.77 17.26,570.12 -197.07,1082.78 -582.02,1493.85 30.76,-286.7 5.81,-582.84 -109.3,-849.79 -169.17,-392.28 -442.71,-611.09 -831.31,-765.87 138.82,173.91 258.04,365.7 336.15,574.67 249.12,666.28 143.02,1396.48 -149.44,2029.03 -448.42,969.96 -1276.62,1364.12 -2220.68,1710.03 317.66,-423.85 534.9,-867 648.54,-1386.39 -422.89,71.71 -850.88,159.15 -1261.03,285.91 -1305.32,403.39 -2651.12,1164 -3504.67,2250.47 58.09,-182.49 108.45,-368.13 174.09,-548.05 244.47,-670.34 615.43,-1232.57 1080.05,-1769.59 -498.24,242.42 -974.23,506.54 -1421.05,836.02 -917.03,676.29 -1713.79,1596.19 -2322.53,2555.21 -122.53,193.05 -246.18,386.19 -344.35,593.05 -74.69,-382.71 -214.71,-762.76 -366.62,-1120.64 -121.67,-286.64 -247.75,-577.34 -399.63,-849.62 -261.82,-469.47 -574.37,-904.59 -867.62,-1354.1 -791.87,-1213.57 -1156,-2183.84 -1006.18,-3652.82 -161.41,170.12 -301.29,358.45 -446.47,542.11 33.87,-992.06 427.07,-1809.64 968.83,-2620.58 177.61,-265.83 369.73,-512.73 532.51,-789.14 -117.37,-275.4 -113.03,-455.67 -32.22,-742.4 -392.67,170.12 -677.65,449.47 -946.52,774.38 52.27,-182.25 88.52,-369.8 128.6,-555.12 -527.28,375.81 -761.3,684.24 -1136.76,1196.8 61.26,-186.97 93.35,-383.33 144.42,-573.41 117.74,-438.1 270.91,-882.6 482.96,-1284.68 242.15,-459.22 541.6,-896.87 1058.87,-1056.34 -102.68,-96.39 -355.49,-234.46 -395.46,-366.72 -21.29,-70.49 145.31,-345.99 174.35,-430.17 212.19,-614.71 294.16,-1141.04 594.08,-1744.07 -75.1,-32.26 -146.68,-68.6 -210.57,-119.96 -204.15,-164.18 -270.06,-419.55 -293.47,-669.14 -280.14,2.39 -474.97,25.14 -714.04,176.85 57.57,-210.71 147.09,-416.44 221,-622.19 139.06,-387.19 274.58,-773.8 421.46,-1158.29 0,0 -292.92,76.16 -292.92,76.16 167.77,-365.39 376.08,-722.69 695.29,-976.38 34.27,-94.38 54.67,-195 78.55,-292.52 -429.46,-272.66 -810.33,-692.23 -1082.85,-1118.28 -493.08,-770.83 -503.84,-1904.11 -307.72,-2776.89 166.23,-739.63 571.35,-1612.16 1045.4,-2203.09 68.63,-85.25 140.6,-167.58 215.91,-246.99 75.3,-79.4 153.73,-155.63 235.25,-228.67 81.5,-73.04 165.83,-142.65 252.97,-208.85 87.17,-66.19 176.88,-128.74 269.11,-187.65 5.77,66.62 -229.48,493.18 -269.45,583.65 -342.84,775.91 -639.01,1885.09 -376.29,2712.98 208.7,657.66 711.65,1190.3 1318.95,1502.05 113.37,-122.56 231.42,-236.27 362.25,-340.08 1031.29,-818.32 2203.05,-1414.4 3505.93,-1646.13 249.39,-44.36 537.02,-102.03 789.41,-72.92 81.56,-156.9 191.21,-304.43 290.98,-450.19 135.99,-201.74 275.39,-401.12 418.18,-598.11 175.32,416.11 285.13,859.73 448.38,1281.06 1175.35,468.17 2285.87,1271.11 2954.53,2361.2 308.06,-47.39 607.71,-61.4 909.45,-150.96 541.93,-160.79 1033.16,-520.24 1301.11,-1025.1 605.36,-1140.53 336.66,-2992.1 -32.46,-4185.93zm-5708.6 2099.8c0,0 9.26,18.67 9.26,18.67 -26.68,164.4 -159.54,664.55 -236.89,797.43 -43.16,15 -95.67,-1.33 -139.88,-9.53 -7.48,-2.94 -17.76,-12.71 -24.29,-17.7 69.63,-213.42 282.54,-575.42 391.81,-788.87zm-6471.6 6283.2c31.1,-2.42 65.02,-6.63 95.95,-1.74 41.35,6.56 82.61,34.55 107.08,68.13 30.49,41.82 39.4,94.54 28.73,144.7 -16.84,79.06 -61.33,118.76 -127.41,159.94 -32.43,1.91 -66.45,4.78 -98.95,2.7 -45.38,-2.87 -94.27,-38.72 -119.96,-75 -29.25,-41.38 -36.23,-89.82 -24.74,-138.82 18.93,-80.77 71.45,-119.35 139.3,-159.91zm2696.36 2005.35c166.92,-9.09 296.24,5.46 453.55,64.78 -159.22,109.16 -323.05,169.44 -507.69,222.67 -163.94,27.98 -296,16.43 -456.53,-25.62 162.99,-95.67 321.28,-228.76 510.67,-261.82zm-2074.97 -2963.86c0,0 5.02,3.28 5.02,3.28 10.04,53.37 -41.07,165.27 -59.18,220.79 -285.08,41.67 -565.92,102.74 -842.55,183.21 0,0 -15.23,-18.45 -15.23,-18.45 17.08,-71.17 52.99,-134.82 85.51,-199.98 273.01,-70.83 547.24,-146.33 826.43,-188.84zm1876.02 2219.37c0,0 12.94,0.93 12.94,0.93 0,0 -8.37,22.61 -8.37,22.61 -205.51,143.81 -448.14,296.92 -694.87,354.6 -200.46,46.88 -373.25,4.71 -544.84,-101.83 -73.7,-59.65 -126.25,-127.1 -180.03,-204.11 472.85,30.28 945.15,-27.23 1415.16,-72.2zm10522.34 -3523.84c-2.02,57.37 -21.56,111.19 -43.87,163.57 -320.02,751.04 -929.78,1304.22 -1687.9,1598.03 -221.78,85.97 -586.59,215.16 -826.97,186.53 -46.09,-5.5 -93.18,-29.62 -135.3,-48.35 0,0 -41.14,-19.24 -41.14,-19.24 0,0 2.29,-12.23 2.29,-12.23 108.42,-43.05 255.88,-44.79 373.38,-70.93 863.76,-192.02 1554.34,-640.41 2075.29,-1357.7 103.09,-141.89 190.28,-291.93 284.21,-439.67zm-13141.68 7187.9c77.28,17.66 182.69,236.23 255.78,298.42 84.39,71.85 174.7,126.73 270.53,182.05 -272.49,124.2 -515.7,283.49 -766.59,445.17 75.78,-164.08 151.85,-323.91 239.82,-481.84 -203.46,152.97 -359.34,310.35 -515.46,510.63 -47.19,62.05 -83.06,129.6 -120.37,197.77 14.55,-142.28 45.55,-280.9 82.1,-418.94 -186.9,144.8 -367.61,295.69 -527.08,470.67 181.37,-470.12 629.85,-978.47 1081.25,-1203.94zm554.98 -5308.08c0,0 11.82,19.13 11.82,19.13 -42.3,213.55 -76.73,431.5 -136.32,640.92 -3.18,-55.35 -3.73,-115.01 -21.7,-167.9 -20.25,-59.69 -56.78,-107.12 -115.55,-132.43 -69.05,-29.76 -155.4,-31.72 -223.98,0.17 -81.69,37.93 -138.07,116.99 -168.24,199.81 -35.78,98.13 -37.9,208.01 8.3,303.2 32.02,66.08 83.91,117.4 154.31,140.67 107.9,35.61 219.63,-6.29 314.13,-57.34 -9.29,86.55 -30.48,171.49 -48.96,256.43 0,0 -177.84,24.43 -177.84,24.43 -256.81,31.54 -505.07,96.25 -758.09,147.5 170.98,-398.95 281.68,-818.57 428.5,-1225.84 244.4,-59.73 484.36,-113.47 733.61,-148.76zm163.67 6599.49c205.86,-14.38 474.18,17.77 672.73,68.03 440.15,111.35 765.33,623.63 984.2,994.25 0,0 -211.77,-182.59 -211.77,-182.59 -422.76,-336.56 -840.74,-424.09 -1368.84,-417.29 -111.59,1.43 -265.11,20.5 -364.64,-38.68 -37.28,-22.14 -70.62,-57.85 -78.24,-102 -10.9,-63.31 15.13,-123.72 53.47,-172.99 82.17,-105.58 188.13,-130.04 313.08,-148.73zm8217.24 30.14c20.56,7.35 39.91,16.03 58.7,27.16 120.1,71.24 231.59,166.61 333.85,261.08 325.31,300.54 511.01,610.06 626.09,1037.94 204.87,761.58 37.83,1344.51 -344.04,2009.35 -38.68,69.7 -78.85,131.3 -128.88,193.42 105.48,-258.41 194.21,-516.97 236.55,-794.2 119.21,-781.08 -91.1,-1615.73 -482.11,-2293.35 -89.21,-154.58 -195.16,-297.39 -300.16,-441.41zm1400.91 456.59c325.07,44.47 646.32,108.21 963.74,191.24 983.38,265.51 1635.68,787.5 2140.04,1660.36 -107.32,-97.59 -204.11,-211.03 -303.27,-317.18 -537.98,-527.15 -995.32,-730.24 -1724.84,-870.56 0,0 -35.19,596.64 -35.19,596.64 -126.9,-197.08 -286.02,-377.01 -437.49,-555.4 0,0 -602.99,-705.09 -602.99,-705.09zm-10777.68 -12802.54c3.52,21.05 3.32,12.85 2.46,33.05 -14.69,340.86 -4.4,717.46 75.48,1049.94 184.37,767.62 787.84,1325.61 1437.34,1724.18 -120.8,137.72 -236.4,279.66 -346.81,425.8 0,0 -108.38,146.27 -108.38,146.27 -510.77,-470.53 -961.28,-953.9 -1170.42,-1635.48 -26.87,-87.17 -48.22,-175.68 -64.03,-265.51 -15.8,-89.83 -25.94,-180.32 -30.41,-271.44 -16.06,-330.36 51.22,-915.32 204.76,-1206.81zm5218.84 1783.95c0,0 4.14,12.3 4.14,12.3 0,0 -24.98,2.9 -24.98,2.9 0,0 20.98,1.78 20.98,1.78 -254.86,255.33 -524.38,506.29 -752.48,786.23 -441.17,541.5 -1181.97,1774.34 -1304.53,2465.9 337.89,17.87 677.96,40.35 1014,80.67 270.77,31.19 540.9,67.16 810.39,107.93 269.47,40.76 538.15,86.27 806.02,136.57 267.87,50.3 534.77,105.32 800.69,165.07 265.91,59.77 530.69,124.22 794.33,193.35 263.63,69.16 525.97,142.96 786.99,221.41 260.99,78.45 520.54,161.51 778.62,249.15 258.05,87.65 514.49,179.86 769.29,276.63 254.8,96.75 507.8,197.97 759.01,303.69 275.87,117.06 789.48,291.35 964.08,526.08 24.05,32.33 41.92,60.44 36.12,100.97 -41.45,2.29 -64.24,-23.67 -98.03,-46.23 -585.82,-299.35 -1193.39,-522.81 -1812.92,-738.43 -328.96,-114.5 -656.33,-234.98 -989.77,-336.19 -379.87,-115.31 -766.28,-206.13 -1151.28,-302.28 -1029.75,-257.18 -2075.97,-478.69 -3131.05,-602.21 -449.67,-52.65 -909.03,-68.16 -1360.8,-98.27 21.34,-72.07 43.79,-143.81 67.34,-215.23 23.53,-71.38 48.17,-142.39 73.9,-213.04 25.71,-70.63 52.53,-140.85 80.43,-210.64 27.88,-69.81 56.83,-139.18 86.85,-208.11 30.02,-68.93 61.1,-137.36 93.25,-205.31 32.12,-67.97 65.28,-135.43 99.5,-202.37 34.2,-66.95 69.41,-133.36 105.65,-199.23 36.24,-65.85 73.49,-131.14 111.76,-195.85 38.25,-64.71 77.48,-128.84 117.71,-192.36 40.21,-63.51 81.39,-126.39 123.55,-188.64 42.17,-62.23 85.27,-123.82 129.33,-184.75 44.03,-60.91 89,-121.14 134.92,-180.68 45.9,-59.54 92.71,-118.37 140.4,-176.48 47.72,-58.08 96.32,-115.44 145.79,-172.07 49.47,-56.6 99.8,-112.43 150.99,-167.49 51.18,-55.06 103.21,-109.32 156.08,-162.78 145.25,-146.85 295.66,-311.03 463.73,-431.98zm-2724.68 9142.67c126.28,-26.91 327.84,117.47 438.13,180.38 511.12,291.52 926.7,885.43 1156.11,1421.32 77.49,180.95 131.06,368.63 182.76,558.09 -283.56,-424.05 -686.19,-677.75 -1062.11,-1006.62 105.58,296.65 180.13,597.05 275.6,896.02 -89.89,-123.82 -153.45,-264.52 -245.5,-388.66 -303.88,-389.88 -632.23,-739.11 -1019.84,-1046.62 91.64,238.97 200.02,469.74 303.85,703.52 -267.25,-229.2 -613.96,-551.98 -909.03,-730.54 27.7,156.49 73.15,312.94 124.85,463.08 -143.91,-170.64 -287.39,-342.92 -440.32,-505.55 402.84,-458.84 609.28,-454.64 1195.5,-544.4zm6275.51 -7651.99c275.02,34.27 549.32,75.61 824.2,111.52 -16.26,298.7 -2.29,576.66 55.29,870.49 136.6,697.2 525.91,1314.03 1117.63,1712.77 0,0 -223.32,81.31 -223.32,81.31 -212.74,72.5 -426.28,139.57 -651.24,158.54 -271.92,-154.47 -507.46,-442.53 -681.62,-697.67 -433.99,-635.8 -581.74,-1485.59 -440.93,-2236.97zm807.45 1370.61c44.83,-6.08 85.49,119.59 103.53,159.09 195.41,427.51 472.03,829.49 859.8,1104.1 -174.49,74.04 -422.31,148.42 -610.65,166.09 -520.34,-327.43 -784.83,-856.38 -969.61,-1422.93 50.96,9 102.22,15.62 153.79,19.85 51.57,4.26 103.24,6.12 154.99,5.57 51.73,-0.52 103.34,-3.44 154.82,-8.75 51.46,-5.3 102.58,-12.98 153.35,-23.02zm3840.2 -5271.69c66.18,71.7 108.01,254.53 135,348.11 140.52,486.98 254.31,985.28 260.86,1494.59 12,927.66 -277.61,1908.32 -934.53,2581.76 -777.08,796.59 -1716.28,1002.29 -2785.63,1014.59 0,0 -36.84,-21.32 -36.84,-21.32 -190.76,-285.44 -237.47,-853 -240.78,-1189.9 436.46,30.69 905.86,32.02 1339.58,-31.34 725.59,-105.99 1348.61,-407.52 1787.77,-1005.19 680.01,-925.39 642.36,-2113.79 474.56,-3191.3zm-6369.2 1619.72c37.66,52.82 34.85,367.71 37.31,451.08 42.99,1444.96 -388.17,2602.09 -1385.06,3658.53 -421.29,-108.59 -854.61,-167.94 -1285.12,-228.76 -103.74,-12.89 -207.53,-25.23 -311.4,-37.04 56.17,-187.14 123.58,-372.6 192.5,-555.43 393.55,-1044.07 1000.37,-1954.26 1848.58,-2681.6 273.59,-234.57 574.06,-457.96 903.2,-606.79zm-4186.02 4597.01c1121.98,4 2244.8,234.87 3339.67,459.87 634.33,130.35 1284.2,255.57 1896.31,469.2 226.44,79.02 438.85,179.21 648.41,295.28 -293.68,31.2 -586.26,58.01 -875.11,121.84 270.87,32.97 628.03,229.61 897.9,324.25 -263.74,-15.82 -514.51,13.29 -776.81,31.57 -187.48,13.09 -375.74,15.41 -563.6,19.17 225.75,49.13 450.43,118.97 673.52,179.52 679.29,184.4 1361.59,394.26 2020.18,643.52 355.14,133.25 971.08,324.21 1211.08,612.76 -600.13,-215.22 -1188.47,-452.45 -1796.07,-648.16 -287.94,-92.74 -577.99,-187.69 -870.05,-266.24 -430.27,-115.72 -868.92,-209.65 -1302.21,-314.65 -434.2,-105.24 -864.07,-222.53 -1301.36,-315.53 -570.55,-120.09 -1144.94,-217.71 -1723.15,-292.86 -578.22,-75.17 -1158.48,-127.64 -1740.79,-157.41 57.23,-387.87 137.52,-790.54 262.06,-1162.12zm338.95 284.04c75.17,-7.51 134.55,-10.66 205.45,19.68 12.14,5.17 23.97,10.94 35.5,17.32 11.55,6.38 22.73,13.33 33.56,20.87 10.82,7.54 21.22,15.61 31.2,24.22 10,8.59 19.52,17.68 28.56,27.27 9.07,9.59 17.61,19.6 25.62,30.06 8.02,10.48 15.48,21.33 22.38,32.56 6.9,11.23 13.21,22.79 18.93,34.69 5.71,11.87 10.8,24 15.27,36.43 34.75,95.7 32.39,205.1 -14.56,296.44 -52.65,102.44 -134.04,144.69 -239.48,178.49 -71.78,12.23 -139.06,13.02 -208.93,-10.49 -88.29,-29.72 -156.87,-95.74 -195.34,-179.93 -42.81,-93.69 -48.07,-200.52 -8.98,-296.44 48.45,-119.04 138.31,-180.71 250.82,-231.18zm27.64 66.15c46.47,-5.12 96.97,-13.97 142.37,1.02 57.75,19.03 107.64,66.53 132.98,121.4 25.42,55.08 26.68,115.97 1.4,171.39 -29.34,64.37 -74.45,90.38 -137.72,115.93 -43.37,6.56 -88.36,15.58 -131.62,4.1 -55.55,-14.69 -106.53,-49.24 -135.03,-99.84 -26.57,-47.22 -30.89,-104.21 -15.92,-155.88 23.03,-79.43 74.45,-119 143.54,-158.13zm1679.69 147.5c83.47,3.18 146.1,12.13 217.96,57.16 86.38,54.16 143.88,143.84 162.1,243.75 18.17,99.85 -2.8,207.13 -61.77,290.26 -69.84,98.38 -156.19,133.8 -270.03,155.27 -77.93,-8.17 -151.16,-17.43 -219.87,-59.15 -10.59,-6.38 -20.84,-13.28 -30.76,-20.7 -9.88,-7.43 -19.38,-15.33 -28.49,-23.71 -9.09,-8.4 -17.73,-17.23 -25.93,-26.48 -8.2,-9.27 -15.91,-18.92 -23.13,-28.97 -7.22,-10.04 -13.91,-20.42 -20.08,-31.16 -6.17,-10.7 -11.79,-21.71 -16.85,-33.01 -5.05,-11.3 -9.53,-22.81 -13.42,-34.55 -3.87,-11.75 -7.15,-23.66 -9.84,-35.74 -2.8,-12.19 -4.98,-24.5 -6.53,-36.94 -1.52,-12.41 -2.4,-24.87 -2.63,-37.39 -0.23,-12.52 0.2,-25.01 1.27,-37.48 1.07,-12.48 2.79,-24.86 5.16,-37.15 2.37,-12.3 5.36,-24.43 8.98,-36.42 3.62,-11.96 7.86,-23.71 12.71,-35.27 4.85,-11.52 10.29,-22.77 16.33,-33.76 6.03,-10.98 12.62,-21.6 19.74,-31.88 68.13,-99.06 170.09,-145.97 285.1,-166.71zm-62.11 64.03c40.69,-5.02 80.7,-9.33 121.02,0.95 61.09,15.58 116.31,53 147.98,108.18 3.71,6.45 7.06,13.06 10.04,19.85 3.01,6.79 5.64,13.72 7.89,20.81 2.23,7.08 4.09,14.26 5.57,21.55 1.46,7.27 2.53,14.6 3.21,22 0.68,7.4 0.97,14.82 0.86,22.24 -0.14,7.43 -0.67,14.82 -1.58,22.17 -0.91,7.38 -2.22,14.68 -3.92,21.9 -1.71,7.24 -3.81,14.36 -6.29,21.35 -26.95,75.78 -81.32,109.72 -150.3,143.78 -30.72,0.82 -62.05,1.91 -92.57,-2.46 -66.59,-9.53 -127.41,-44.36 -165.47,-100.6 -30.86,-45.54 -39.71,-97.93 -27.81,-151.4 19.54,-88.08 77.9,-127.14 151.37,-170.36zm1652.45 255.43c81.97,-6.45 156.87,1.1 230.67,39.54 11.39,5.94 22.46,12.44 33.22,19.47 10.73,7.06 21.08,14.64 31.06,22.72 9.98,8.11 19.52,16.68 28.63,25.73 9.09,9.06 17.71,18.56 25.86,28.49 8.15,9.93 15.78,20.24 22.89,30.96 7.11,10.68 13.66,21.7 19.68,33.08 5.99,11.34 11.4,22.96 16.22,34.89 4.83,11.91 9.05,24.02 12.64,36.35 29.38,98.41 19.37,209.86 -30.02,300.17 -58.4,106.61 -144.05,156.12 -257.25,189.25 -80.91,-2.39 -155.78,-11.85 -230.57,-45.61 -95.88,-43.26 -174.05,-121.44 -206.98,-222.4 -3.87,-12.1 -7.12,-24.35 -9.74,-36.77 -2.64,-12.41 -4.65,-24.93 -6.01,-37.56 -1.39,-12.59 -2.14,-25.23 -2.26,-37.93 -0.11,-12.71 0.41,-25.37 1.58,-38 1.16,-12.64 2.94,-25.18 5.36,-37.65 2.41,-12.46 5.45,-24.77 9.12,-36.94 3.64,-12.14 7.89,-24.07 12.74,-35.81 4.85,-11.73 10.27,-23.19 16.26,-34.38 61.1,-113.1 159.2,-162.88 276.9,-197.63zm7.38 54.09c38.68,-0.65 84.19,1.23 121.03,13.05 56.54,18.18 105.03,63.11 127.78,117.75 23.47,56.34 17.25,120.03 -6.93,174.97 -36.63,83.13 -98.24,120.27 -179.55,152.63 -51.6,-0.68 -99.98,-2.32 -146.44,-27.39 -59.22,-31.99 -105.86,-90.27 -121.37,-156.09 -14.14,-59.93 -3.93,-119.24 30.03,-170.77 42.06,-63.79 103.77,-88.32 175.45,-104.15zm-249.08 -5771.43c0,0 164.25,-11.51 164.25,-11.51 -136.19,104.52 -289.54,186.45 -435.84,275.77 -243.66,148.73 -479.21,302.35 -699.9,483.88 -280.63,230.88 -532.14,480.34 -782.45,743.02 -1070.14,1123.23 -1674.09,2311.96 -1973.91,3829.54 -50.06,253.42 -108.45,514.19 -133.26,771.24 -440.93,36.08 -874.66,28.08 -1312.39,108.69 0,0 -137.14,30.09 -137.14,30.09 91.5,-391.08 163.6,-785.28 270.47,-1173.01 255.19,-925.95 696.2,-1874.96 1287.44,-2634.52 184.43,-236.92 373.28,-464.58 588.2,-674.57 770.11,-752.48 2082.81,-1613.99 3164.53,-1748.61zm-518.88 178.15c1.44,5.26 3.35,10.39 4.31,15.75 6.45,35.85 -7.89,65.29 -30.1,92.53 -74.45,91.3 -235.66,165.75 -353.95,176.34 -53.26,4.78 -76.77,-10.28 -116.27,-41.21 19.75,-46.95 39.16,-80.19 85.86,-100.35 17.9,19.27 35.5,39.98 63.11,44.25 112.99,17.59 265.2,-121.37 347.04,-187.31zm-1209.54 580.07c54.09,-0.65 120.07,5.47 162.64,43.53 26.99,24.16 38.72,48.53 41.76,84.5 6.66,78.31 -62.94,184.44 -111.49,240.27 -81.28,93.42 -207.23,163.39 -332.43,169.64 -41.92,2.12 -82.95,-10.66 -112.55,-41.24 -47.08,-48.66 -55.69,-108.86 -56.54,-173.54 60.99,-102 139.23,-177.47 226.46,-256.63 -36.05,56.51 -101.99,148.35 -89.82,218.44 6.32,36.35 14.86,39.77 43.33,59 22.92,2.87 40.97,4.1 63.69,-1.43 92.77,-22.58 194.92,-89.58 241.63,-174.4 17.25,-31.3 23.13,-65.87 11,-100.28 -13.22,-37.45 -54.63,-52.11 -87.67,-67.86zm-1323.01 1096.65c63.51,-6.93 132.09,-11.65 192.29,13.7 57.27,24.12 100.53,65.67 121.67,124.54 33.39,93.01 13.94,207.64 -29.72,293.98 -71.13,140.64 -195.03,223.33 -340.59,272.12 -65.63,11.41 -130.31,14.62 -193.62,-9.36 -49.17,-18.65 -87.78,-51.76 -108.93,-100.39 -38.41,-88.38 -17.08,-198.27 21.07,-282.84 69.53,-154.14 183.35,-252.26 337.83,-311.75zm8.3 41.04c38.37,-3 76.36,-5.77 114.09,4.1 39.98,10.45 76.56,34.24 94.88,72.5 18.42,38.41 13.6,83.81 0.07,122.87 -36.94,106.57 -110.36,154.85 -208.42,199.13 -36.08,7.41 -75.03,13.29 -111.8,7.27 -33.93,-5.5 -64.26,-25.86 -80.29,-56.58 -21.93,-42.06 -15.81,-93.42 -2.25,-137.08 33.83,-109.13 95.23,-161.55 193.73,-212.22zm-1463.58 3206.89c73.39,-0.85 138.48,4.1 205,37.9 10.16,5.17 20.03,10.84 29.62,17.01 9.59,6.17 18.85,12.8 27.78,19.88 8.9,7.09 17.44,14.6 25.62,22.55 8.17,7.95 15.93,16.29 23.26,25.01 7.33,8.72 14.21,17.79 20.64,27.19 6.42,9.43 12.36,19.14 17.83,29.14 5.44,10.02 10.37,20.28 14.79,30.79 4.44,10.5 8.34,21.19 11.68,32.09 34.96,111.53 20.74,234.12 -33.18,337.24 -58.49,111.83 -140.36,170.3 -257.72,208.69 -76.19,1.1 -147.33,-1.94 -217.45,-35.19 -10.36,-4.83 -20.46,-10.18 -30.31,-16.06 -9.82,-5.85 -19.32,-12.21 -28.49,-19.06 -9.18,-6.83 -17.99,-14.12 -26.41,-21.87 -8.43,-7.72 -16.43,-15.86 -24.02,-24.42 -7.61,-8.56 -14.74,-17.49 -21.42,-26.78 -6.67,-9.3 -12.87,-18.9 -18.58,-28.8 -5.69,-9.93 -10.87,-20.13 -15.51,-30.59 -4.67,-10.45 -8.78,-21.11 -12.33,-31.98 -38.62,-115.94 -20.47,-248.23 38.99,-353.85 62.8,-111.49 150.29,-164.66 270.19,-198.89zm38.72 40.26c34.65,2.66 73.39,6.42 105.51,20.08 55.39,23.61 100.83,74.08 120.03,130.87 21.18,62.62 13.32,130.24 -15.48,189.08 -40.28,82.34 -102.43,111.32 -185.7,138.58 -53.61,2.7 -102.84,4.68 -150.19,-24.53 -44.97,-27.7 -73.84,-73.29 -85.15,-124.44 -15.68,-70.93 2.57,-150.65 40.67,-211.64 44.59,-71.24 90.16,-98.44 170.33,-118.01zm510.01 -1672.39c60,-3.52 114.71,-5.43 172.49,13.77 82.23,27.3 146.78,75.2 184.57,154.61 44.9,94.35 39.19,207.4 2.97,303.45 -63.72,168.86 -180.2,263.29 -340.04,333.21 -80.36,14.86 -157.55,16.53 -233.06,-19.06 -67.34,-31.75 -113.03,-87.09 -137.49,-156.94 -41.35,-118.19 -20.05,-260.22 35.13,-370.31 69.02,-137.73 174.15,-209.72 315.43,-258.72zm10.12 55.83c53.4,-6.86 113.54,-11.44 163.9,10.87 5.01,2.16 9.9,4.58 14.66,7.24 4.76,2.66 9.37,5.57 13.83,8.71 4.47,3.12 8.76,6.47 12.88,10.05 4.12,3.55 8.05,7.31 11.79,11.27 3.76,3.96 7.3,8.11 10.62,12.43 3.33,4.33 6.43,8.81 9.3,13.43 2.87,4.65 5.5,9.42 7.89,14.31 2.37,4.9 4.5,9.91 6.39,15.03 20.53,55.08 9.25,121.33 -17.63,172.31 -40.49,76.74 -99.78,120.72 -180.58,147.61 -44.25,4.1 -99.02,13.15 -142.07,2.28 -45.03,-11.34 -87.97,-44.14 -108.24,-86.13 -23.71,-49.1 -18.96,-105.78 -0.21,-155.64 37.15,-98.75 104.94,-142.41 197.46,-183.79zm-962.27 3224.47c30.17,20.63 45.41,159.87 57.6,205.2 52.83,196.26 152.26,338.54 285.99,488.57 -133.32,303.99 -238.42,633.55 -336.42,950.86 210.37,-237.98 457,-447.83 748,-579.56 44.18,106.98 87.87,214.13 145.07,314.99 140.53,247.89 319.47,337.99 585.54,409.54 353.67,95.13 804.48,132.09 1133.11,-58.74 -162.37,30.69 -322.3,50.61 -487.74,37.12 -298.09,-24.36 -524.96,-146.41 -717.22,-373.39 43.99,12.07 88.19,23.22 132.63,33.46 396.46,87.7 744.31,-1.1 1082.07,-214.21 -386.64,117.95 -655.28,61.5 -1045.26,7.24 271.06,-24.73 554.75,-55.25 807.62,-162.77 128.06,-54.43 263.5,-157.97 399.9,-182.02 163.57,-28.79 347.84,16.27 509.65,42.72 -197.9,-288.21 -377.93,-474.15 -707.86,-607.3 338.91,-3.32 652.47,39.06 985.81,95.5 113.87,-74.62 229.49,-146.42 346.87,-215.4 0,0 233.51,42.41 233.51,42.41 60.75,267.25 81.04,544.97 39.4,816.85 -61.51,401.45 -261.66,757.78 -591.69,998.22 -462.43,336.87 -1027.43,364.54 -1574.83,276.7 272.18,155.74 555.16,305.77 801.37,501.65 433.83,345.13 330.98,690.76 385.48,1176.98 19.81,-52.62 24.49,-111.04 42.37,-164.96 56.1,-169.24 141.04,-334.34 241.15,-481.53 298.43,-438.85 960.09,-855.22 1092.32,-1371.57 374.41,531.65 715.81,1085.1 1057.26,1638.25 0,0 167.66,275.12 167.66,275.12 -404.58,-281 -800.24,-572.83 -1223.41,-825.74 227.01,562.61 454.27,1127.24 669.79,1694.28 -360.81,-289.02 -701.37,-602.92 -1061.87,-892.26 82.34,445.14 144.39,880.96 198,1330.26 -303.55,-330.47 -648.89,-649.36 -1015.95,-908.08 135.85,573.65 141.04,989.57 178.36,1570.08 -51.8,-157.21 -79.34,-322.85 -123.73,-482.41 -36.38,-127.36 -80.06,-252.16 -131.06,-374.41 -50.98,-122.23 -108.91,-241.09 -173.78,-356.58 -268.45,-488.74 -916.65,-1294.62 -1467.37,-1455.24 57.61,-74.76 108.89,-152.02 159.53,-231.66 -123.04,-109.58 -244.3,-219.71 -360.74,-336.29 -132.47,-132.67 -261.55,-278.37 -411.21,-391.57 -150.76,-114.02 -345.44,-197.62 -537.6,-167.01 -249.53,39.81 -419.93,245.29 -556.56,439.02 89.51,-57.37 180.51,-115.35 279.91,-154.27 136.29,-53.41 312.94,-83.03 449.61,-17.15 65.53,31.61 111.73,85.69 132.91,155.26 29.72,97.55 14.52,209.07 -33.8,298.15 -40.56,74.79 -110.4,143.36 -193.15,168.96 -150.99,46.71 -331.91,-47.8 -491.23,-27.33 -241.84,31.1 -516.01,164.73 -759.31,231.9 -127.86,-59.21 -231.43,-140.26 -335.03,-234.67 31,-154.68 87.27,-308.8 127.52,-462.15 100.05,-381.21 165.27,-792.97 349.67,-1144.11 126.42,-240.68 311.55,-445.62 440.84,-684.11 0,0 9.66,-18 9.66,-18 -214.37,-190.93 -434.54,-365.7 -633.47,-573.86 232.92,-38.75 458.74,-47.32 694.09,-50.94zm4821.29 496.35c216.01,31.06 430.07,82.14 646.05,115.86 516.52,1274.02 1390.53,2617.87 2717.09,3153.22 523.15,211.13 1091.97,286.63 1652.09,305.56 1203.32,40.7 1698.21,-185.22 2850.79,517.55 -336.8,-87.06 -596.88,-213.7 -962,-245.88 -345.64,-30.51 -706.87,13.5 -1052.84,37.25 -1016.05,69.77 -2163.92,193.59 -3116.46,-250 -195.74,-91.13 -373.96,-216.77 -552.97,-336.25 178.84,278.95 314.82,729.85 409.47,1050.48 219.74,744.48 295.59,1520.47 149.11,2286.31 -78.11,408.21 -221.14,839.23 -442.44,1191.51 -264.28,420.71 -634.88,763.96 -1021.21,1070.41 -222.98,176.4 -451.89,344.73 -686.7,505 -234.85,160.27 -475.05,312.06 -720.6,455.39 -772.51,460.83 -1565.3,885.43 -2258.64,1466.11 -655.17,548.77 -1151.94,1214.77 -1558.71,1962.71 -266.88,-723.88 -580.82,-1535.78 -706.25,-2294.96 -47.77,254.01 -103.67,489.7 -105.65,750.02 -370.69,-729.59 -450.19,-1084.86 -548.15,-1888.29 -107.7,185.95 -211.2,363.96 -250.28,578.2 -242.76,-726.79 -214.34,-1614.57 -10.39,-2352.77 -201.96,285.38 -378.75,543.34 -502.36,874.06 -29.73,-469.13 20.01,-910.82 147.7,-1363 63.58,-225.2 139.06,-444.25 186.25,-673.92 -201.76,194.48 -399.77,378.95 -647.15,514.74 76.98,-590.63 485.29,-1115.31 836.26,-1576.57 145.33,-188.97 298.53,-371.35 459.6,-547.13 102.95,657.56 -11.79,1385.92 -271.01,1997.31 380.11,-427.54 693.78,-1032.89 809.43,-1592.56 83.36,717.56 -72.09,1149.68 -431.98,1767.4 -80.77,138.65 -199.78,292.45 -241.81,445.96 -36.26,132.26 -11.41,295.89 -4.07,432.97 38.62,720.5 154.52,1228.4 503.5,1863.65 -79.57,-577.1 82.61,-1154.73 343.56,-1666.67 -200.63,1156.34 -55.01,2777.3 541.94,3801.65 -12.96,-72.84 -23.17,-146.08 -30.62,-219.7 -86.58,-829.88 193.56,-1742.02 721.28,-2389.91 -211.6,496.32 -315.98,1000.61 -375.47,1534.98 -19.37,173.82 -24.63,348.89 -50.12,521.99 679.22,-1078.92 1955.35,-1803.42 2385.19,-3028.57 74.32,-211.78 113.17,-436.66 143.54,-658.48 249.7,515.15 286.87,993.32 104.45,1535.56 613.31,-423.2 1199.71,-859.21 1526.04,-1556.04 402.4,-859.18 209.31,-1824.39 -97.83,-2676.67 172.31,212.73 348.86,436.08 470.84,682.09 250.69,505.61 289.44,1015.88 238.39,1570.9 -14.62,158.99 -26.34,317.28 -78.28,469.33 398.51,-335.87 674.34,-645.77 904.32,-1116.81 230.26,-471.52 280.11,-959.2 260.43,-1477.36 -42.55,-1117.6 -471.8,-2192.44 -1032.73,-3149.97 -121.74,-207.77 -283.66,-391.97 -410.39,-597.39 -344.55,-558.4 -627.45,-1179.1 -840.22,-1799.28z"/>
 </g>
</svg>
